# Blender 4.1.1
# www.blender.org
mtllib foot.mtl
o L_b_leg_003
v 25.167908 33.422211 33.626205
v 29.500408 25.591013 36.383705
v 32.819405 26.441313 34.271004
v 28.530907 34.345413 31.513506
v 28.365007 36.642914 37.338802
v 30.295107 37.211014 36.127304
v 34.605602 29.286316 38.884804
v 32.699905 28.739614 40.096302
v 25.804008 34.431610 35.294003
v 30.143608 26.582615 38.051502
v 32.200203 21.754509 37.431808
v 32.844604 22.736712 39.099609
v 35.595005 23.462009 37.343708
v 34.947903 22.457710 35.675907
v 37.698105 23.226810 33.920006
v 38.346004 24.265913 35.587807
v 36.781704 28.447514 33.826103
v 36.136604 27.384714 32.158405
v 31.882708 35.311813 29.400906
v 32.522102 36.370316 31.068707
v 29.169407 35.374611 33.181305
v 30.728008 27.490215 39.565403
v 26.381008 35.352715 36.807903
v 38.315704 25.762714 39.282703
v 36.506805 29.886713 37.673306
v 37.365105 29.434113 35.340103
v 38.933002 25.228813 37.101707
v 41.214005 18.432911 40.154907
v 39.637905 17.968410 41.161709
v 39.998302 18.524012 42.087406
v 40.902306 18.792511 41.510006
v 29.748308 36.315315 34.695305
v 36.738605 25.271114 40.289703
v 38.064304 17.529312 42.168606
v 39.095005 18.264412 42.664806
v 33.101402 37.340019 32.582603
v 32.220203 37.801819 34.915802
v 35.159805 24.816416 41.296608
v 33.430504 23.636612 40.613506
v 27.776907 38.796013 32.943504
v 26.930908 37.539711 32.368702
v 27.514708 37.625015 31.790806
v 26.633507 37.688515 33.136906
v 26.702707 38.031616 33.889603
v 27.120308 38.479614 34.425003
v 27.774408 38.914215 34.599804
v 28.489408 39.219017 34.367104
v 29.073408 39.310410 33.789204
v 29.369808 39.161713 33.021004
v 29.299608 38.812317 32.268303
v 28.881908 38.358215 31.732904
v 28.228708 37.923714 31.558104
v 26.755907 35.869415 32.218903
v 27.762707 36.005417 31.217905
v 26.244707 36.133911 33.549404
v 26.367107 36.728912 34.853104
v 27.091408 37.501015 35.780605
v 28.223707 38.249115 36.083405
v 29.459408 38.773819 35.680305
v 30.466507 38.929916 34.679405
v 30.975208 38.668015 33.348804
v 30.850208 38.055511 32.045105
v 30.125608 37.263313 31.117605
v 28.995808 36.512711 30.814905
v 27.288408 34.212410 32.534203
v 28.445507 34.358315 31.378506
v 26.703608 34.526314 34.070602
v 26.848808 35.215912 35.576004
v 27.686508 36.104019 36.647003
v 28.992308 36.961220 36.996605
v 30.415009 37.560715 36.531204
v 31.572308 37.736717 35.375404
v 32.154305 37.430519 33.839005
v 32.006203 36.717918 32.333603
v 31.168509 35.799210 31.262606
v 29.865408 34.935013 30.913006
v 28.382908 33.003113 33.230206
v 29.381308 33.124817 32.229305
v 27.880508 33.279716 34.560802
v 28.009207 33.879715 35.864502
v 28.735407 34.647919 36.792004
v 29.864708 35.385918 37.094704
v 31.093708 35.899315 36.691704
v 32.092102 36.046616 35.690704
v 32.592705 35.778214 34.360203
v 32.462204 35.160515 33.056503
v 31.736008 34.366516 32.129005
v 30.608507 33.620811 31.826206
v 29.751608 32.572113 34.120403
v 30.326708 32.643211 33.542503
v 29.463007 32.732620 34.888603
v 29.538507 33.081116 35.641304
v 29.958107 33.526215 36.176704
v 30.609407 33.951614 36.351505
v 31.317608 34.244514 36.118805
v 31.892807 34.324814 35.540905
v 32.180805 34.167419 34.772705
v 32.104805 33.812920 34.020004
v 31.685207 33.358620 33.484604
v 31.034409 32.930115 33.309803
v 31.035007 33.051315 34.966103
v 36.182705 24.385515 38.857609
v 38.520905 21.559311 41.270206
v 37.311405 21.212511 42.042908
v 35.963604 20.276312 41.461708
v 38.071304 20.855612 40.114407
v 40.181004 21.484112 38.767006
v 39.730904 21.924112 40.497608
v 39.176704 24.237413 35.758209
v 38.656902 23.415209 34.431808
v 38.744804 23.280710 34.425106
v 39.253902 24.114714 35.740009
v 41.570602 20.511009 36.295208
v 41.022705 19.844709 35.003609
v 44.548603 10.255110 38.783508
v 45.198505 10.662809 40.110107
v 33.678005 18.321011 41.344208
v 33.136005 17.710112 40.052608
v 31.947908 21.437311 38.767406
v 32.453903 22.213011 40.082306
v 40.028305 9.116710 43.414009
v 39.386703 8.742510 42.087406
v 46.796303 1.949908 39.559006
v 47.254204 1.864508 40.189308
v 44.619804 0.418708 41.921207
v 44.173904 0.521208 41.333008
v 43.895702 0.876708 41.376007
v 44.354202 0.795008 42.006310
v 34.397205 23.439211 39.923508
v 36.123604 23.912411 38.821808
v 38.363503 20.148111 40.543606
v 36.553303 19.649111 41.701107
v 40.175602 20.682211 39.386208
v 44.319805 10.823609 42.927708
v 43.400402 10.538010 43.513508
v 47.492302 0.897508 41.445709
v 46.742405 0.624508 41.915806
v 38.482403 18.198610 34.019207
v 36.565403 21.182510 33.679806
v 34.817505 20.717810 34.797306
v 36.236904 17.597010 35.457409
v 42.277203 9.156209 37.395809
v 40.927704 8.765609 38.260509
v 45.616905 0.859308 38.601608
v 45.426304 1.232507 38.533009
v 44.650005 0.942308 39.019306
v 44.877403 0.581107 39.065208
v 36.481606 21.311209 33.683006
v 36.896004 23.238909 35.463306
v 35.175205 22.761309 36.561806
v 34.763306 20.854410 34.781609
v 47.669704 0.467108 41.361507
v 46.643906 0.657708 39.981609
v 45.904602 0.382908 40.445107
v 46.930504 0.197408 41.825108
v 40.229805 20.384512 38.214306
v 37.856403 24.392513 37.654308
v 37.785004 24.525713 37.680508
v 38.341503 22.340710 33.306709
v 38.426605 22.217709 33.301506
v 40.491505 19.156010 33.722206
v 43.899506 9.852010 37.456909
v 46.338104 2.038508 38.928707
v 46.484505 1.656708 39.017609
v 46.930202 1.546508 39.605808
v 47.375603 1.439808 40.194107
v 47.486904 0.910008 41.384808
v 44.404903 10.486609 41.770809
v 32.441605 22.352211 40.058708
v 34.342003 23.547812 39.877609
v 34.354202 23.399111 39.889408
v 35.730904 19.123911 41.090706
v 41.696102 9.666010 43.499908
v 45.935303 0.339408 42.357609
v 46.191402 -0.078192 42.288609
v 45.165405 0.103008 40.908607
v 43.727604 0.628608 40.744808
v 44.137905 0.298807 39.528709
v 43.873802 0.648308 39.505707
v 43.436802 0.963408 40.745708
v 38.746204 8.372209 40.760807
v 39.582905 8.393008 39.125206
v 33.996204 17.033409 36.895607
v 32.611805 17.070911 38.771206
v 33.071503 20.276310 35.914806
v 31.635208 20.421909 37.643806
v 31.614908 20.561409 37.607208
v 33.046703 20.419910 35.880108
v 33.455303 22.310709 37.660408
v 31.924707 21.588411 38.732307
v 42.482903 10.261410 44.099308
v 45.992603 0.346208 42.386009
v 37.849903 24.419914 37.720108
v 36.063602 24.019615 38.779106
vn -0.9336 0.0568 -0.3538
vn -0.5646 0.2405 -0.7895
vn -0.3750 -0.4801 -0.7930
vn -0.8086 -0.5622 -0.1735
vn -0.2824 0.7982 0.5322
vn 0.0168 0.3200 0.9473
vn 0.3656 0.4757 0.8000
vn -0.0706 0.9390 0.3365
vn -0.7930 -0.3378 0.5070
vn -0.9131 0.3927 0.1098
vn -0.3723 -0.9280 -0.0106
vn 0.0437 -0.9437 -0.3278
vn 0.4435 -0.8324 0.3324
vn -0.2126 -0.8027 0.5572
vn 0.5102 -0.6664 -0.5437
vn 0.3735 -0.1837 -0.9093
vn 0.8590 0.2103 -0.4668
vn 0.8915 -0.4486 -0.0637
vn 0.0238 0.3408 -0.9398
vn -0.4512 0.8257 -0.3386
vn 0.2581 0.7668 -0.5877
vn -0.7868 0.4743 0.3949
vn -0.6052 -0.1315 0.7851
vn 0.7025 0.4723 0.5324
vn 0.9793 -0.1134 -0.1679
vn 0.9198 0.3669 -0.1392
vn 0.6579 0.5225 0.5423
vn 0.6982 -0.5322 -0.4789
vn 0.8033 -0.1412 0.5785
vn 0.5737 -0.2825 0.7688
vn 0.0575 -0.9413 -0.3327
vn -0.4562 0.8229 -0.3387
vn 0.3845 0.4422 0.8103
vn 0.2622 -0.3086 0.9143
vn -0.4310 -0.8757 0.2179
vn 0.2022 0.9549 0.2172
vn 0.3966 0.8577 -0.3272
vn 0.0089 0.2543 0.9671
vn -0.4703 -0.5590 0.6829
vn -0.4604 0.8228 -0.3333
vn -0.5695 0.4081 -0.7136
vn -0.7722 0.3656 -0.5196
vn -0.8752 0.4075 -0.2608
vn -0.8501 0.5267 -0.0005
vn -0.6965 0.6922 0.1893
vn -0.4537 0.8551 0.2509
vn -0.1941 0.9668 0.1664
vn 0.0085 0.9994 -0.0342
vn 0.1044 0.9504 -0.2930
vn 0.0734 0.8346 -0.5459
vn -0.0795 0.6793 -0.7295
vn -0.3154 0.5231 -0.7917
vn -0.5176 -0.0553 -0.8538
vn -0.8345 -0.1274 -0.5361
vn -0.9904 -0.0674 -0.1207
vn -0.9485 0.1154 0.2950
vn -0.7044 0.3768 0.6016
vn -0.3160 0.6393 0.7010
vn 0.0978 0.8209 0.5627
vn 0.4183 0.8768 0.2372
vn 0.5681 0.8027 -0.1817
vn 0.5149 0.6233 -0.5885
vn 0.2695 0.3800 -0.8848
vn -0.1114 0.1304 -0.9852
vn -0.3587 -0.4854 -0.7973
vn -0.7115 -0.5553 -0.4306
vn -0.8741 -0.4845 0.0348
vn -0.8185 -0.2899 0.4961
vn -0.5432 -0.0092 0.8395
vn -0.1093 0.2798 0.9538
vn 0.3524 0.4858 0.7999
vn 0.7090 0.5552 0.4348
vn 0.8767 0.4797 -0.0351
vn 0.8210 0.2821 -0.4964
vn 0.5458 0.0055 -0.8379
vn 0.1083 -0.2798 -0.9539
vn -0.1206 -0.8181 -0.5623
vn -0.4415 -0.8663 -0.2336
vn -0.5826 -0.7927 0.1794
vn -0.5242 -0.6201 0.5837
vn -0.2740 -0.3795 0.8837
vn 0.1115 -0.1308 0.9851
vn 0.5205 0.0527 0.8523
vn 0.8379 0.1187 0.5327
vn 0.9914 0.0549 0.1187
vn 0.9483 -0.1241 -0.2921
vn 0.7051 -0.3796 -0.5989
vn 0.3084 -0.6402 -0.7036
vn 0.1676 -0.9716 -0.1671
vn -0.0405 -0.9985 0.0368
vn -0.1332 -0.9462 0.2949
vn -0.0954 -0.8324 0.5460
vn 0.0654 -0.6790 0.7312
vn 0.3107 -0.5229 0.7938
vn 0.5706 -0.4087 0.7123
vn 0.7742 -0.3682 0.5149
vn 0.8745 -0.4109 0.2575
vn 0.8493 -0.5280 0.0021
vn 0.6948 -0.6939 -0.1890
vn 0.4423 -0.8602 -0.2539
vn 0.4505 -0.8271 0.3362
vn 0.0577 -0.9404 -0.3353
vn 0.0144 0.2127 0.9770
vn 0.4013 0.4121 0.8180
vn -0.4705 -0.5590 0.6827
vn -0.8057 -0.5736 0.1475
vn -0.4705 -0.5591 0.6827
vn 0.0619 -0.9393 -0.3375
vn -0.3686 -0.4839 -0.7937
vn -0.8058 -0.5737 0.1471
vn 0.0579 -0.9405 -0.3350
vn 0.9792 -0.1135 -0.1681
vn 0.6380 -0.1269 -0.7595
vn 0.9792 -0.1134 -0.1681
vn 0.7257 0.4388 0.5300
vn 0.6383 -0.1267 -0.7593
vn 0.7024 0.4723 0.5325
vn 0.4012 0.4121 0.8180
vn 0.7255 0.4388 0.5301
vn 0.2622 -0.3089 0.9142
vn 0.5738 -0.2829 0.7686
vn 0.4012 0.4122 0.8180
vn -0.4308 -0.8757 0.2182
vn 0.2625 -0.3088 0.9142
vn 0.0577 -0.9414 -0.3324
vn -0.4308 -0.8758 0.2178
vn -0.8057 -0.5738 0.1472
vn 0.6380 -0.1268 -0.7595
vn 0.6980 -0.5322 -0.4791
vn 0.0577 -0.9414 -0.3325
vn 0.7256 0.4388 0.5301
vn 0.8032 -0.1415 0.5786
vn 0.6983 -0.5321 -0.4788
vn 0.5737 -0.2829 0.7686
vn 0.8034 -0.1415 0.5784
vn 0.7255 0.4389 0.5302
vn 0.4470 0.8856 -0.1262
vn 0.8313 0.5478 -0.0939
vn 0.6956 0.4302 -0.5754
vn 0.1537 0.7536 -0.6391
vn 0.8951 0.4454 -0.0188
vn 0.9545 0.2970 0.0255
vn 0.8658 0.1620 -0.4734
vn 0.8233 0.2810 -0.4932
vn -0.5207 -0.0186 0.8535
vn -0.6091 0.0874 0.7883
vn -0.9201 -0.1009 0.3784
vn -0.8338 -0.2746 0.4789
vn -0.4332 -0.2257 0.8726
vn -0.7512 -0.4446 0.4878
vn 0.9278 0.2339 -0.2905
vn 0.8070 0.1844 -0.5610
vn -0.4458 -0.7434 0.4987
vn -0.5377 -0.4610 0.7059
vn -0.7174 -0.5309 0.4511
vn -0.5432 -0.7950 0.2700
vn -0.1752 0.3206 0.9309
vn -0.1315 0.2622 0.9560
vn 0.3603 0.5006 0.7871
vn 0.3441 0.5300 0.7750
vn 0.7315 0.5412 0.4147
vn 0.4649 0.2507 0.8491
vn 0.7835 0.3404 0.5199
vn 0.5195 0.0424 0.8534
vn 0.8388 0.2217 0.4973
vn -0.2070 -0.3362 -0.9187
vn -0.4118 -0.4162 -0.8107
vn -0.4481 -0.3263 -0.8323
vn -0.2907 -0.2319 -0.9283
vn -0.1576 -0.3050 -0.9392
vn -0.4213 -0.3794 -0.8237
vn 0.1975 -0.5553 -0.8079
vn -0.1215 -0.7516 -0.6483
vn -0.4126 -0.3220 -0.8521
vn -0.0282 -0.1730 -0.9845
vn -0.4627 0.2066 -0.8621
vn -0.5646 0.2024 -0.8002
vn -0.4858 0.7540 -0.4422
vn -0.4331 0.7668 -0.4738
vn 0.8653 -0.4653 0.1862
vn 0.5465 -0.6999 0.4599
vn 0.1852 -0.9451 -0.2693
vn 0.4655 -0.7598 -0.4540
vn 0.8577 0.4591 0.2317
vn 0.8340 0.4867 0.2600
vn 0.1960 0.9530 0.2312
vn 0.0164 0.4854 -0.8742
vn 0.3241 0.1656 -0.9314
vn 0.4979 0.0169 -0.8671
vn 0.5902 -0.0388 -0.8063
vn 0.6385 0.0585 -0.7674
vn 0.6910 -0.1092 -0.7145
vn 0.7766 -0.1403 -0.6142
vn 0.9091 -0.0639 -0.4117
vn 0.9367 0.3473 0.0437
vn 0.9145 0.3609 0.1829
vn -0.6345 0.5461 0.5469
vn -0.3042 0.0922 0.9481
vn -0.2409 0.8181 0.5222
vn -0.2921 -0.1167 0.9492
vn -0.2760 0.1270 0.9527
vn -0.3381 -0.3131 0.8875
vn -0.0797 -0.9939 -0.0761
vn 0.2116 -0.7608 0.6135
vn -0.6315 -0.7579 0.1637
vn -0.8025 -0.5734 0.1649
vn -0.6851 -0.4841 -0.5443
vn -0.3825 -0.8229 -0.4202
vn -0.8318 -0.5490 0.0821
vn -0.9003 -0.4354 -0.0011
vn -0.5884 -0.4577 -0.6666
vn -0.6213 -0.4687 -0.6280
vn -0.9567 -0.2564 -0.1375
vn -0.6068 -0.3362 -0.7202
vn -0.9328 0.1976 -0.3013
vn -0.9044 0.4267 -0.0035
vn -0.5377 0.7406 -0.4031
vn -0.6565 0.1529 -0.7387
vn -0.3046 0.0921 0.9480
vn -0.2764 0.1269 0.9526
vn -0.2763 0.1267 0.9527
vn -0.2925 -0.1168 0.9491
vn 0.0128 0.0513 0.9986
vn -0.2924 -0.1170 0.9491
vn -0.3382 -0.3131 0.8875
vn 0.0631 -0.1741 0.9827
vn 0.0126 0.0513 0.9986
vn 0.9152 0.3590 0.1831
vn 0.9146 0.3609 0.1825
vn 0.8341 0.4866 0.2596
vn 0.7315 0.5411 0.4148
vn 0.8341 0.4867 0.2596
vn 0.8577 0.4591 0.2313
vn 0.7092 0.5940 0.3797
vn -0.3380 -0.3130 0.8876
vn 0.2118 -0.7608 0.6134
vn 0.0633 -0.1740 0.9827
vn 0.8653 -0.4654 0.1862
vn 0.9367 0.3473 0.0436
vn -0.0554 0.9417 0.3319
vn 0.8577 0.4591 0.2314
vn 0.7092 0.5939 0.3798
vn -0.1751 0.3207 0.9309
vn -0.2408 0.8181 0.5222
vn -0.3045 0.0921 0.9480
vt 1.000000 0.000000
vt 1.000000 0.500000
vt 0.500000 0.500000
vt 0.500000 0.000000
vt 0.000000 0.213300
vt 0.500000 0.213300
vt 0.000000 0.500000
vt 0.000000 0.000000
vt 0.500000 0.361500
vt 0.000000 0.361500
vt 0.000000 0.877000
vt 0.000000 0.689600
vt 0.500000 0.689600
vt 0.500000 0.877000
vt 1.000000 0.689600
vt 0.786700 1.000000
vt 0.500000 1.000000
vt 1.000000 1.000000
vt 1.000000 0.786700
vt 0.500000 0.786700
vt 1.000000 0.361500
vt 0.213300 1.000000
vt 1.000000 0.213300
vt 1.000000 0.877000
vt 0.000000 1.000000
vt 0.000000 0.786700
vt 0.000000 0.833300
vt 0.083300 0.833300
vt 0.083300 1.000000
vt 0.166700 0.833300
vt 0.166700 1.000000
vt 0.250000 0.833300
vt 0.250000 1.000000
vt 0.333300 0.833300
vt 0.333300 1.000000
vt 0.416700 0.833300
vt 0.416700 1.000000
vt 0.500000 0.833300
vt 0.583300 0.833300
vt 0.583300 1.000000
vt 0.666700 0.833300
vt 0.666700 1.000000
vt 0.750000 0.833300
vt 0.750000 1.000000
vt 0.833300 0.833300
vt 0.833300 1.000000
vt 0.916700 0.833300
vt 0.916700 1.000000
vt 1.000000 0.833300
vt 0.000000 0.666700
vt 0.083300 0.666700
vt 0.166700 0.666700
vt 0.250000 0.666700
vt 0.333300 0.666700
vt 0.416700 0.666700
vt 0.500000 0.666700
vt 0.583300 0.666700
vt 0.666700 0.666700
vt 0.750000 0.666700
vt 0.833300 0.666700
vt 0.916700 0.666700
vt 1.000000 0.666700
vt 0.083300 0.500000
vt 0.166700 0.500000
vt 0.250000 0.500000
vt 0.333300 0.500000
vt 0.416700 0.500000
vt 0.583300 0.500000
vt 0.666700 0.500000
vt 0.750000 0.500000
vt 0.833300 0.500000
vt 0.916700 0.500000
vt 0.000000 0.333300
vt 0.083300 0.333300
vt 0.166700 0.333300
vt 0.250000 0.333300
vt 0.333300 0.333300
vt 0.416700 0.333300
vt 0.500000 0.333300
vt 0.583300 0.333300
vt 0.666700 0.333300
vt 0.750000 0.333300
vt 0.833300 0.333300
vt 0.916700 0.333300
vt 1.000000 0.333300
vt 0.000000 0.166700
vt 0.083300 0.166700
vt 0.166700 0.166700
vt 0.250000 0.166700
vt 0.333300 0.166700
vt 0.416700 0.166700
vt 0.500000 0.166700
vt 0.583300 0.166700
vt 0.666700 0.166700
vt 0.750000 0.166700
vt 0.833300 0.166700
vt 0.916700 0.166700
vt 1.000000 0.166700
vt 0.083300 0.000000
vt 0.166700 0.000000
vt 0.250000 0.000000
vt 0.333300 0.000000
vt 0.416700 0.000000
vt 0.583300 0.000000
vt 0.666700 0.000000
vt 0.750000 0.000000
vt 0.833300 0.000000
vt 0.916700 0.000000
vt 0.055900 1.000000
vt 0.053900 0.396900
vt 1.000000 0.352400
vt 0.987600 0.475900
vt 0.041500 0.520300
vt 1.000000 0.514600
vt 1.000000 0.725100
vt 0.975100 0.105500
vt 0.987600 0.229000
vt 0.043400 0.273300
vt 0.031000 0.149800
vt 1.000000 0.514700
vt 1.000000 0.737100
vt 1.000000 0.724400
vt 0.000000 0.399400
vt -0.064800 0.425800
vt 1.000300 0.352300
vt -0.127800 0.430200
vt 0.055900 0.396800
vt 0.975100 0.599300
vt 0.031000 0.643700
vt 0.029000 0.643800
vt -0.012400 0.275900
vt -0.024900 0.646300
vt -0.012400 0.522800
vt -0.024900 0.152500
s 1
usemtl wire_000000000
f 1/1/1 4/2/2 3/3/3 2/4/4
f 5/5/5 8/6/6 7/3/7 6/7/8
f 1/8/1 2/4/4 10/9/9 9/10/10
f 11/8/11 14/4/12 13/9/13 12/10/14
f 15/8/15 18/4/16 17/9/17 16/10/18
f 19/8/19 4/4/2 21/9/20 20/10/21
f 5/11/5 23/12/22 22/13/23 8/14/6
f 24/11/24 27/12/25 26/13/26 25/14/27
f 28/15/28 31/16/29 30/17/30 29/13/31
f 23/15/22 5/16/5 6/17/8 32/13/32
f 4/2/2 19/18/19 18/17/16 3/3/3
f 33/2/33 24/19/24 25/20/27 7/3/7
f 14/4/12 15/1/15 16/21/18 13/9/13
f 4/4/2 1/1/1 9/21/10 21/9/20
f 30/17/30 35/22/34 34/12/35 29/13/31
f 6/17/8 37/22/36 36/12/37 32/13/32
f 3/3/3 14/7/12 11/8/11 2/4/4
f 8/6/6 38/23/38 33/2/33 7/3/7
f 2/4/4 11/1/11 12/21/14 10/9/9
f 18/4/16 19/1/19 20/21/21 17/9/17
f 22/13/23 39/15/39 38/24/38 8/14/6
f 26/13/26 36/15/37 37/24/36 25/14/27
f 18/17/16 15/25/15 14/7/12 3/3/3
f 25/20/27 37/26/36 6/7/8 7/3/7
f 40/25/40 42/27/41 41/28/42
f 40/29/40 41/28/42 43/30/43
f 40/31/40 43/30/43 44/32/44
f 40/33/40 44/32/44 45/34/45
f 40/35/40 45/34/45 46/36/46
f 40/37/40 46/36/46 47/38/47
f 40/17/40 47/38/47 48/39/48
f 40/40/40 48/39/48 49/41/49
f 40/42/40 49/41/49 50/43/50
f 40/44/40 50/43/50 51/45/51
f 40/46/40 51/45/51 52/47/52
f 40/48/40 52/47/52 42/49/41
f 42/27/41 54/50/53 53/51/54 41/28/42
f 41/28/42 53/51/54 55/52/55 43/30/43
f 43/30/43 55/52/55 56/53/56 44/32/44
f 44/32/44 56/53/56 57/54/57 45/34/45
f 45/34/45 57/54/57 58/55/58 46/36/46
f 46/36/46 58/55/58 59/56/59 47/38/47
f 47/38/47 59/56/59 60/57/60 48/39/48
f 48/39/48 60/57/60 61/58/61 49/41/49
f 49/41/49 61/58/61 62/59/62 50/43/50
f 50/43/50 62/59/62 63/60/63 51/45/51
f 51/45/51 63/60/63 64/61/64 52/47/52
f 52/47/52 64/61/64 54/62/53 42/49/41
f 54/50/53 66/7/65 65/63/66 53/51/54
f 53/51/54 65/63/66 67/64/67 55/52/55
f 55/52/55 67/64/67 68/65/68 56/53/56
f 56/53/56 68/65/68 69/66/69 57/54/57
f 57/54/57 69/66/69 70/67/70 58/55/58
f 58/55/58 70/67/70 71/3/71 59/56/59
f 59/56/59 71/3/71 72/68/72 60/57/60
f 60/57/60 72/68/72 73/69/73 61/58/61
f 61/58/61 73/69/73 74/70/74 62/59/62
f 62/59/62 74/70/74 75/71/75 63/60/63
f 63/60/63 75/71/75 76/72/76 64/61/64
f 64/61/64 76/72/76 66/2/65 54/62/53
f 66/7/65 78/73/77 77/74/78 65/63/66
f 65/63/66 77/74/78 79/75/79 67/64/67
f 67/64/67 79/75/79 80/76/80 68/65/68
f 68/65/68 80/76/80 81/77/81 69/66/69
f 69/66/69 81/77/81 82/78/82 70/67/70
f 70/67/70 82/78/82 83/79/83 71/3/71
f 71/3/71 83/79/83 84/80/84 72/68/72
f 72/68/72 84/80/84 85/81/85 73/69/73
f 73/69/73 85/81/85 86/82/86 74/70/74
f 74/70/74 86/82/86 87/83/87 75/71/75
f 75/71/75 87/83/87 88/84/88 76/72/76
f 76/72/76 88/84/88 78/85/77 66/2/65
f 78/73/77 90/86/89 89/87/90 77/74/78
f 77/74/78 89/87/90 91/88/91 79/75/79
f 79/75/79 91/88/91 92/89/92 80/76/80
f 80/76/80 92/89/92 93/90/93 81/77/81
f 81/77/81 93/90/93 94/91/94 82/78/82
f 82/78/82 94/91/94 95/92/95 83/79/83
f 83/79/83 95/92/95 96/93/96 84/80/84
f 84/80/84 96/93/96 97/94/97 85/81/85
f 85/81/85 97/94/97 98/95/98 86/82/86
f 86/82/86 98/95/98 99/96/99 87/83/87
f 87/83/87 99/96/99 100/97/100 88/84/88
f 88/84/88 100/97/100 90/98/89 78/85/77
f 101/8/101 89/87/90 90/86/89
f 101/99/101 91/88/91 89/87/90
f 101/100/101 92/89/92 91/88/91
f 101/101/101 93/90/93 92/89/92
f 101/102/101 94/91/94 93/90/93
f 101/103/101 95/92/95 94/91/94
f 101/4/101 96/93/96 95/92/95
f 101/104/101 97/94/97 96/93/96
f 101/105/101 98/95/98 97/94/97
f 101/106/101 99/96/99 98/95/98
f 101/107/101 100/97/100 99/96/99
f 101/108/101 90/98/89 100/97/100
f 10/9/9 22/13/23 23/12/22 9/10/10
f 13/9/13 102/13/102 39/12/39 12/10/14
f 17/9/17 26/13/26 27/12/25 16/10/18
f 21/9/20 32/13/32 36/12/37 20/10/21
f 16/21/18 27/15/25 102/13/102 13/9/13
f 9/21/10 23/15/22 32/13/32 21/9/20
f 12/21/14 39/15/39 22/13/23 10/9/9
f 20/21/21 36/15/37 26/13/26 17/9/17
s 0
f 33/17/33 38/22/38 104/22/103 103/17/104
f 38/22/38 39/12/105 105/12/106 104/22/103
f 39/12/107 102/13/108 106/13/109 105/12/110
f 102/13/111 27/15/112 107/15/113 106/13/109
f 27/15/114 24/16/24 108/16/115 107/15/116
f 24/16/117 33/17/33 103/17/118 108/16/119
f 104/22/103 35/22/120 30/17/121 103/17/122
f 105/12/106 34/12/123 35/22/124 104/22/103
f 106/13/109 29/13/125 34/12/126 105/12/127
f 107/15/128 28/15/129 29/13/130 106/13/109
f 108/16/131 31/16/132 28/15/133 107/15/116
f 103/17/118 30/17/134 31/16/135 108/16/136
s 1
f 109/25/137 112/109/138 111/109/139 110/25/140
f 113/18/141 116/18/142 115/18/143 114/18/144
f 117/18/145 120/109/146 119/109/147 118/18/148
f 121/18/149 117/18/145 118/18/148 122/18/150
f 116/18/142 124/18/151 123/18/152 115/18/143
f 125/18/153 128/18/154 127/18/155 126/18/156
f 129/110/157 132/111/158 131/112/159 130/113/160
f 133/111/161 131/111/159 135/114/162 134/114/163
f 134/114/163 135/114/162 137/115/164 136/115/165
f 138/116/166 141/117/167 140/118/168 139/119/169
f 142/120/170 143/120/171 141/111/167 138/111/166
f 144/121/172 147/121/173 146/122/174 145/122/175
f 148/123/176 151/123/177 150/123/178 149/123/179
f 152/121/180 155/121/181 154/121/182 153/121/183
f 113/18/141 112/109/138 157/124/184 156/125/185
f 109/25/137 110/25/140 149/123/179 158/123/186
f 159/25/187 160/109/188 139/124/169 148/126/176
f 161/18/189 162/18/190 142/120/170 138/111/166
f 162/18/190 163/18/191 145/122/175 142/120/170
f 164/18/192 165/18/193 153/121/183 144/121/172
f 166/18/194 124/18/151 167/122/195 152/121/180
f 116/18/142 113/18/141 156/111/185 168/114/196
f 169/25/197 120/109/146 171/127/198 170/123/199
f 117/18/145 121/18/149 173/114/200 172/111/201
f 121/18/149 128/18/154 174/122/202 173/114/200
f 125/18/153 126/18/156 176/121/203 175/121/204
f 177/18/205 180/18/206 179/122/207 178/121/208
f 181/18/209 184/18/210 183/111/211 182/120/212
f 184/18/210 186/109/213 185/127/214 183/111/211
f 187/25/215 190/25/216 189/123/217 188/123/218
s 0
f 171/127/219 172/111/220 132/111/158 129/110/157
f 172/111/221 173/114/222 191/114/223 132/111/158
f 173/114/224 174/122/225 192/115/226 191/114/227
f 167/122/195 168/114/228 134/114/163 136/115/165
f 168/114/229 156/111/230 133/111/231 134/114/163
f 156/128/232 157/129/233 193/130/234 133/128/161
s 1
f 124/18/151 166/18/194 165/18/193 123/18/152
f 128/18/154 121/18/149 122/18/150 127/18/155
f 179/122/207 182/120/212 143/120/171 146/122/174
f 163/18/191 164/18/192 144/121/172 145/122/175
f 124/18/151 116/18/142 168/114/196 167/122/195
f 128/18/154 125/18/153 175/121/204 174/122/202
f 180/18/206 181/18/209 182/120/212 179/122/207
s 0
f 174/122/235 175/121/236 192/115/237
s 1
f 192/115/226 175/121/204 155/121/181 137/115/164
s 0
f 136/115/165 152/121/238 167/122/239
s 1
f 114/18/144 161/18/189 160/109/188 111/109/139
f 115/18/143 162/18/190 161/18/189 114/18/144
f 190/25/216 187/25/215 186/109/213 119/109/147
f 118/18/148 184/18/210 181/18/209 122/18/150
f 123/18/152 163/18/191 162/18/190 115/18/143
f 127/18/155 180/18/206 177/18/205 126/18/156
f 189/123/217 170/123/199 194/123/240 150/123/178
f 176/121/203 178/121/208 147/121/173 154/121/182
f 110/25/140 159/25/187 148/123/176 149/123/179
f 165/18/193 166/18/194 152/121/180 153/121/183
f 126/18/156 177/18/205 178/121/208 176/121/203
f 190/25/216 169/25/197 170/123/199 189/123/217
f 165/18/193 164/18/192 163/18/191 123/18/152
f 122/18/150 181/18/209 180/18/206 127/18/155
f 112/109/138 113/18/141 114/18/144 111/109/139
f 120/109/146 169/25/197 190/25/216 119/109/147
f 185/127/214 188/123/218 151/131/177 140/118/168
f 112/109/138 109/25/137 158/126/186 157/124/184
f 160/109/188 161/18/189 138/111/166 139/124/169
f 120/109/146 117/18/145 172/111/201 171/127/198
f 186/109/213 187/25/215 188/123/218 185/127/214
f 160/109/188 159/25/187 110/25/140 111/109/139
f 186/109/213 184/18/210 118/18/148 119/109/147
s 0
f 157/129/241 158/132/186 193/130/242
s 1
f 193/130/234 158/132/186 194/133/240 130/113/160
s 0
f 129/110/243 170/123/244 171/127/245
s 1
f 131/112/159 133/128/161 193/130/234 130/113/160
f 131/111/159 132/111/158 191/114/227 135/114/162
f 135/114/162 191/114/227 192/115/226 137/115/164
f 141/117/167 183/111/211 185/127/214 140/118/168
f 143/120/171 182/120/212 183/111/211 141/111/167
f 147/121/173 178/121/208 179/122/207 146/122/174
f 151/123/177 188/123/218 189/123/217 150/123/178
f 155/121/181 175/121/204 176/121/203 154/121/182
f 143/120/171 142/120/170 145/122/175 146/122/174
f 155/121/181 152/121/180 136/115/165 137/115/164
f 194/123/240 158/123/186 149/123/179 150/123/178
f 147/121/173 144/121/172 153/121/183 154/121/182
f 151/131/177 148/134/176 139/119/169 140/118/168
f 194/133/240 170/123/199 129/110/157 130/113/160
