# Blender 4.1.1
# www.blender.org
mtllib upper.mtl
o L_b_leg_001
v 10.721702 32.548813 9.800499
v 14.521404 29.294012 13.682702
v 17.944304 30.338509 11.570101
v 14.137104 33.620010 7.687900
v 12.402504 37.560211 12.285501
v 14.361704 38.172112 11.073999
v 18.182804 34.840706 14.956202
v 16.219404 34.243813 16.167702
v 10.878102 35.682610 12.135601
v 14.687202 32.394211 16.017801
v 18.280005 25.985811 17.564901
v 18.483503 29.109612 19.900002
v 21.864304 30.036211 17.787401
v 21.634604 26.859711 15.452303
v 24.974808 27.693611 13.339602
v 25.224009 30.916111 15.674703
v 21.535805 34.469513 11.792500
v 21.346504 31.314610 9.457401
v 17.559404 34.666710 5.575199
v 17.714504 37.805107 7.910299
v 14.293604 36.753510 10.022999
v 23.896103 31.989712 17.626902
v 20.146904 35.435211 13.744702
v 21.961803 31.467812 18.838402
v 20.019505 30.929211 20.049902
v 16.322603 38.778412 9.862500
v 12.173604 35.755608 5.978699
v 11.729702 34.219910 5.835999
v 12.376304 34.256111 5.304099
v 11.273602 34.532707 6.478800
v 11.129601 35.112106 7.060100
v 11.336302 35.803711 7.424200
v 11.838402 36.421310 7.473499
v 12.501704 36.798111 7.194900
v 13.148804 36.832413 6.662899
v 13.606104 36.515709 6.020199
v 13.750604 35.934113 5.438899
v 13.543404 35.244408 5.074799
v 13.040304 34.630707 5.025399
v 11.934802 32.642006 6.273200
v 13.054804 32.704407 5.351799
v 11.145402 33.181206 7.386400
v 10.896802 34.182213 8.393299
v 11.255102 35.378708 9.023999
v 12.124904 36.447807 9.109399
v 13.274303 37.099106 8.626799
v 14.395704 37.156212 7.705400
v 15.188304 36.605408 6.592100
v 15.438603 35.598312 5.585299
v 15.078804 34.407211 4.954599
v 14.205804 33.349609 4.869199
v 12.734004 31.444010 7.173000
v 14.027704 31.514610 6.109100
v 11.822802 32.065613 8.458499
v 11.536602 33.218613 9.621099
v 11.951302 34.596413 10.349299
v 12.956804 35.826912 10.447999
v 14.284904 36.575409 9.890699
v 15.580503 36.639008 8.826799
v 16.495804 36.002708 7.541299
v 16.784204 34.842110 6.378699
v 16.367504 33.471207 5.650499
v 15.357903 32.255409 5.551799
v 13.914804 30.941210 8.294400
v 15.035704 31.000210 7.373000
v 13.125504 31.480209 9.407600
v 12.878104 32.476807 10.414499
v 13.238503 33.665710 11.045099
v 14.110703 34.726112 11.130599
v 15.262004 35.370407 10.647999
v 16.384304 35.424309 9.726600
v 17.176603 34.874908 8.613300
v 17.425404 33.872910 7.606500
v 17.063604 32.689209 6.975800
v 16.188503 31.639210 6.890300
v 15.162304 31.262709 9.336800
v 15.809904 31.295509 8.804900
v 14.706304 31.575010 9.979600
v 14.563603 32.149910 10.560899
v 14.772404 32.833908 10.924999
v 15.276804 33.443108 10.974299
v 15.942004 33.813110 10.695699
v 16.590004 33.844208 10.163700
v 17.047005 33.528511 9.521000
v 17.190104 32.952011 8.939700
v 16.980904 32.269608 8.575600
v 16.475603 31.663809 8.526200
v 16.142204 32.323013 10.021100
vn -0.8475 -0.3344 -0.4122
vn -0.4673 -0.2058 -0.8598
vn -0.1223 -0.8040 -0.5819
vn -0.6224 -0.7808 -0.0541
vn -0.5402 0.8235 0.1730
vn -0.2116 0.6309 0.7464
vn 0.1151 0.8048 0.5823
vn -0.3243 0.9447 -0.0496
vn -0.7101 0.0099 0.7040
vn -0.9305 0.3393 0.1383
vn -0.1916 -0.9256 0.3263
vn 0.2823 -0.9574 0.0606
vn 0.5495 -0.5194 0.6545
vn -0.2055 -0.3009 0.9312
vn 0.7266 -0.6321 -0.2692
vn 0.5036 -0.3460 -0.7916
vn 0.7759 0.5880 -0.2285
vn 0.9703 0.0947 0.2228
vn 0.0965 -0.0004 -0.9953
vn -0.5611 0.5112 -0.6510
vn 0.2358 0.7796 -0.5803
vn 0.6833 0.3242 0.6542
vn 0.4019 0.8469 0.3482
vn 0.4780 0.2044 0.8542
vn 0.1886 0.1783 0.9657
vn -0.0578 0.9882 -0.1419
vn -0.5651 0.5116 -0.6473
vn -0.5259 -0.0115 -0.8505
vn -0.7350 -0.0387 -0.6769
vn -0.8811 0.0560 -0.4696
vn -0.9268 0.2535 -0.2770
vn -0.8486 0.5071 -0.1507
vn -0.6592 0.7401 -0.1332
vn -0.4198 0.8782 -0.2292
vn -0.2055 0.8916 -0.4035
vn -0.0678 0.7898 -0.6096
vn -0.0358 0.5991 -0.7999
vn -0.1197 0.3592 -0.9256
vn -0.3007 0.1333 -0.9443
vn -0.3520 -0.4705 -0.8092
vn -0.6832 -0.5133 -0.5193
vn -0.9145 -0.3636 -0.1777
vn -0.9889 -0.0485 0.1406
vn -0.8645 0.3605 0.3502
vn -0.5602 0.7375 0.3771
vn -0.1762 0.9607 0.2143
vn 0.1647 0.9833 -0.0768
vn 0.3829 0.8244 -0.4169
vn 0.4361 0.5211 -0.7336
vn 0.3027 0.1317 -0.9439
vn 0.0095 -0.2371 -0.9714
vn -0.1008 -0.8081 -0.5804
vn -0.4735 -0.8449 -0.2490
vn -0.7255 -0.6741 0.1387
vn -0.8007 -0.3268 0.5021
vn -0.6574 0.1256 0.7430
vn -0.3189 0.5487 0.7728
vn 0.1028 0.8058 0.5833
vn 0.4795 0.8413 0.2496
vn 0.7289 0.6704 -0.1386
vn 0.8016 0.3249 -0.5019
vn 0.6565 -0.1283 -0.7434
vn 0.3170 -0.5523 -0.7711
vn 0.1739 -0.9617 -0.2118
vn -0.1604 -0.9841 0.0759
vn -0.3781 -0.8274 0.4153
vn -0.4340 -0.5232 0.7334
vn -0.3024 -0.1327 0.9439
vn -0.0094 0.2361 0.9717
vn 0.3536 0.4688 0.8095
vn 0.6854 0.5110 0.5188
vn 0.9154 0.3614 0.1776
vn 0.9890 0.0457 -0.1408
vn 0.8618 -0.3665 -0.3507
vn 0.5537 -0.7433 -0.3754
vn 0.4129 -0.8818 0.2278
vn 0.2037 -0.8938 0.3995
vn 0.0681 -0.7932 0.6051
vn 0.0357 -0.6020 0.7977
vn 0.1193 -0.3607 0.9250
vn 0.3003 -0.1344 0.9443
vn 0.5256 0.0101 0.8507
vn 0.7345 0.0368 0.6776
vn 0.8802 -0.0586 0.4710
vn 0.9253 -0.2583 0.2778
vn 0.8438 -0.5152 0.1502
vn 0.6509 -0.7475 0.1326
vn 0.5615 -0.5168 0.6463
vt 1.000000 0.000000
vt 1.000000 0.500000
vt 0.500000 0.500000
vt 0.500000 0.000000
vt 0.000000 0.213300
vt 0.500000 0.213300
vt 0.000000 0.500000
vt 0.000000 0.000000
vt 0.500000 0.689600
vt 0.000000 0.689600
vt 0.000000 0.877000
vt 0.500000 0.877000
vt 1.000000 0.689600
vt 0.786700 1.000000
vt 0.500000 1.000000
vt 1.000000 1.000000
vt 1.000000 0.786700
vt 0.500000 0.786700
vt 0.213300 1.000000
vt 1.000000 0.213300
vt 1.000000 0.877000
vt 0.000000 1.000000
vt 0.000000 0.786700
vt 0.000000 0.833300
vt 0.083300 0.833300
vt 0.083300 1.000000
vt 0.166700 0.833300
vt 0.166700 1.000000
vt 0.250000 0.833300
vt 0.250000 1.000000
vt 0.333300 0.833300
vt 0.333300 1.000000
vt 0.416700 0.833300
vt 0.416700 1.000000
vt 0.500000 0.833300
vt 0.583300 0.833300
vt 0.583300 1.000000
vt 0.666700 0.833300
vt 0.666700 1.000000
vt 0.750000 0.833300
vt 0.750000 1.000000
vt 0.833300 0.833300
vt 0.833300 1.000000
vt 0.916700 0.833300
vt 0.916700 1.000000
vt 1.000000 0.833300
vt 0.000000 0.666700
vt 0.083300 0.666700
vt 0.166700 0.666700
vt 0.250000 0.666700
vt 0.333300 0.666700
vt 0.416700 0.666700
vt 0.500000 0.666700
vt 0.583300 0.666700
vt 0.666700 0.666700
vt 0.750000 0.666700
vt 0.833300 0.666700
vt 0.916700 0.666700
vt 1.000000 0.666700
vt 0.083300 0.500000
vt 0.166700 0.500000
vt 0.250000 0.500000
vt 0.333300 0.500000
vt 0.416700 0.500000
vt 0.583300 0.500000
vt 0.666700 0.500000
vt 0.750000 0.500000
vt 0.833300 0.500000
vt 0.916700 0.500000
vt 0.000000 0.333300
vt 0.083300 0.333300
vt 0.166700 0.333300
vt 0.250000 0.333300
vt 0.333300 0.333300
vt 0.416700 0.333300
vt 0.500000 0.333300
vt 0.583300 0.333300
vt 0.666700 0.333300
vt 0.750000 0.333300
vt 0.833300 0.333300
vt 0.916700 0.333300
vt 1.000000 0.333300
vt 0.000000 0.166700
vt 0.083300 0.166700
vt 0.166700 0.166700
vt 0.250000 0.166700
vt 0.333300 0.166700
vt 0.416700 0.166700
vt 0.500000 0.166700
vt 0.583300 0.166700
vt 0.666700 0.166700
vt 0.750000 0.166700
vt 0.833300 0.166700
vt 0.916700 0.166700
vt 1.000000 0.166700
vt 0.083300 0.000000
vt 0.166700 0.000000
vt 0.250000 0.000000
vt 0.333300 0.000000
vt 0.416700 0.000000
vt 0.583300 0.000000
vt 0.666700 0.000000
vt 0.750000 0.000000
vt 0.833300 0.000000
vt 0.916700 0.000000
s 1
usemtl wire_000000000
f 1/1/1 4/2/2 3/3/3 2/4/4
f 5/5/5 8/6/6 7/3/7 6/7/8
f 1/8/1 2/4/4 10/9/9 9/10/10
f 11/8/11 14/4/12 13/9/13 12/10/14
f 15/8/15 18/4/16 17/9/17 16/10/18
f 19/8/19 4/4/2 21/9/20 20/10/21
f 5/11/5 9/10/10 10/9/9 8/12/6
f 22/11/22 16/10/18 17/9/17 23/12/23
f 16/13/18 22/14/22 24/15/24 13/9/13
f 9/13/10 5/14/5 6/15/8 21/9/20
f 4/2/2 19/16/19 18/15/16 3/3/3
f 24/2/24 22/17/22 23/18/23 7/3/7
f 14/4/12 15/1/15 16/13/18 13/9/13
f 4/4/2 1/1/1 9/13/10 21/9/20
f 24/15/24 25/19/25 12/10/14 13/9/13
f 6/15/8 26/19/26 20/10/21 21/9/20
f 3/3/3 14/7/12 11/8/11 2/4/4
f 8/6/6 25/20/25 24/2/24 7/3/7
f 2/4/4 11/1/11 12/13/14 10/9/9
f 18/4/16 19/1/19 20/13/21 17/9/17
f 10/9/9 12/13/14 25/21/25 8/12/6
f 17/9/17 20/13/21 26/21/26 23/12/23
f 18/15/16 15/22/15 14/7/12 3/3/3
f 23/18/23 26/23/26 6/7/8 7/3/7
f 27/22/27 29/24/28 28/25/29
f 27/26/27 28/25/29 30/27/30
f 27/28/27 30/27/30 31/29/31
f 27/30/27 31/29/31 32/31/32
f 27/32/27 32/31/32 33/33/33
f 27/34/27 33/33/33 34/35/34
f 27/15/27 34/35/34 35/36/35
f 27/37/27 35/36/35 36/38/36
f 27/39/27 36/38/36 37/40/37
f 27/41/27 37/40/37 38/42/38
f 27/43/27 38/42/38 39/44/39
f 27/45/27 39/44/39 29/46/28
f 29/24/28 41/47/40 40/48/41 28/25/29
f 28/25/29 40/48/41 42/49/42 30/27/30
f 30/27/30 42/49/42 43/50/43 31/29/31
f 31/29/31 43/50/43 44/51/44 32/31/32
f 32/31/32 44/51/44 45/52/45 33/33/33
f 33/33/33 45/52/45 46/53/46 34/35/34
f 34/35/34 46/53/46 47/54/47 35/36/35
f 35/36/35 47/54/47 48/55/48 36/38/36
f 36/38/36 48/55/48 49/56/49 37/40/37
f 37/40/37 49/56/49 50/57/50 38/42/38
f 38/42/38 50/57/50 51/58/51 39/44/39
f 39/44/39 51/58/51 41/59/40 29/46/28
f 41/47/40 53/7/52 52/60/53 40/48/41
f 40/48/41 52/60/53 54/61/54 42/49/42
f 42/49/42 54/61/54 55/62/55 43/50/43
f 43/50/43 55/62/55 56/63/56 44/51/44
f 44/51/44 56/63/56 57/64/57 45/52/45
f 45/52/45 57/64/57 58/3/58 46/53/46
f 46/53/46 58/3/58 59/65/59 47/54/47
f 47/54/47 59/65/59 60/66/60 48/55/48
f 48/55/48 60/66/60 61/67/61 49/56/49
f 49/56/49 61/67/61 62/68/62 50/57/50
f 50/57/50 62/68/62 63/69/63 51/58/51
f 51/58/51 63/69/63 53/2/52 41/59/40
f 53/7/52 65/70/64 64/71/65 52/60/53
f 52/60/53 64/71/65 66/72/66 54/61/54
f 54/61/54 66/72/66 67/73/67 55/62/55
f 55/62/55 67/73/67 68/74/68 56/63/56
f 56/63/56 68/74/68 69/75/69 57/64/57
f 57/64/57 69/75/69 70/76/70 58/3/58
f 58/3/58 70/76/70 71/77/71 59/65/59
f 59/65/59 71/77/71 72/78/72 60/66/60
f 60/66/60 72/78/72 73/79/73 61/67/61
f 61/67/61 73/79/73 74/80/74 62/68/62
f 62/68/62 74/80/74 75/81/75 63/69/63
f 63/69/63 75/81/75 65/82/64 53/2/52
f 65/70/64 77/83/76 76/84/77 64/71/65
f 64/71/65 76/84/77 78/85/78 66/72/66
f 66/72/66 78/85/78 79/86/79 67/73/67
f 67/73/67 79/86/79 80/87/80 68/74/68
f 68/74/68 80/87/80 81/88/81 69/75/69
f 69/75/69 81/88/81 82/89/82 70/76/70
f 70/76/70 82/89/82 83/90/83 71/77/71
f 71/77/71 83/90/83 84/91/84 72/78/72
f 72/78/72 84/91/84 85/92/85 73/79/73
f 73/79/73 85/92/85 86/93/86 74/80/74
f 74/80/74 86/93/86 87/94/87 75/81/75
f 75/81/75 87/94/87 77/95/76 65/82/64
f 88/8/88 76/84/77 77/83/76
f 88/96/88 78/85/78 76/84/77
f 88/97/88 79/86/79 78/85/78
f 88/98/88 80/87/80 79/86/79
f 88/99/88 81/88/81 80/87/80
f 88/100/88 82/89/82 81/88/81
f 88/4/88 83/90/83 82/89/82
f 88/101/88 84/91/84 83/90/83
f 88/102/88 85/92/85 84/91/84
f 88/103/88 86/93/86 85/92/85
f 88/104/88 87/94/87 86/93/86
f 88/105/88 77/95/76 87/94/87
